<?xml version="1.0" standalone="no"?>
<!DOCTYPE svg PUBLIC "-//W3C//DTD SVG 20010904//EN"
 "http://www.w3.org/TR/2001/REC-SVG-20010904/DTD/svg10.dtd">
<svg version="1.0" xmlns="http://www.w3.org/2000/svg"
 width="512.000000pt" height="512.000000pt" viewBox="0 0 512.000000 512.000000"
 preserveAspectRatio="xMidYMid meet">

<g transform="translate(0.000000,512.000000) scale(0.100000,-0.100000)"
fill="#464646" stroke="none">
<path d="M2511 5106 c-43 -24 -50 -51 -51 -198 0 -150 8 -181 51 -204 52 -27
115 -8 137 41 7 16 12 77 12 160 0 83 -5 144 -12 160 -22 48 -88 68 -137 41z"/>
<path d="M1854 4916 c-22 -22 -34 -44 -34 -62 0 -32 112 -236 151 -276 36 -37
86 -38 127 -3 57 48 50 85 -51 257 -57 96 -82 118 -133 118 -16 0 -39 -13 -60
-34z"/>
<path d="M3152 4938 c-13 -6 -48 -54 -79 -106 -101 -172 -108 -209 -51 -257
41 -35 91 -34 127 3 39 39 151 244 151 275 0 62 -91 114 -148 85z"/>
<path d="M1098 4171 l-33 -29 -5 -347 -5 -347 -60 -42 c-33 -23 -65 -53 -71
-66 -7 -14 -69 -749 -139 -1639 -105 -1337 -124 -1619 -114 -1643 26 -62 -105
-58 1889 -58 1992 0 1864 -4 1889 58 16 39 -181 3240 -203 3287 -9 21 -40 45
-99 80 l-86 50 -3 333 -3 334 -33 29 -32 29 -1430 0 -1430 0 -32 -29z m2566
-179 c-5 -5 -68 -57 -140 -115 -73 -59 -134 -114 -138 -123 -3 -8 -6 -92 -6
-185 l0 -169 -820 0 -820 0 0 169 c0 93 -3 177 -6 186 -4 8 -65 64 -138 122
-72 59 -135 110 -140 115 -6 4 491 8 1104 8 613 0 1110 -4 1104 -8z m-2247
-225 c29 -23 52 -44 52 -47 0 -6 -193 -130 -203 -130 -3 0 -6 68 -6 151 l0
151 53 -42 c28 -23 75 -61 104 -83z m2443 -28 l0 -141 -22 14 c-13 8 -60 36
-105 63 l-82 47 57 47 c110 91 137 111 144 111 5 0 8 -64 8 -141z m-167 -274
c53 -32 97 -59 97 -61 0 -2 -47 -4 -105 -4 l-105 0 0 66 c0 36 3 63 8 61 4 -2
51 -30 105 -62z m-2156 -62 c-3 -2 -44 -3 -93 -1 l-89 3 90 58 90 58 3 -56 c2
-32 1 -59 -1 -62z m2533 -234 c0 -17 41 -678 90 -1469 50 -791 90 -1452 90
-1469 l0 -31 -1691 0 -1692 0 6 68 c4 37 7 82 7 100 l0 32 260 0 c280 0 301 3
326 51 18 35 18 63 0 98 -25 47 -47 51 -318 51 l-251 0 6 48 c3 26 49 611 103
1300 l99 1252 1482 0 1483 0 0 -31z"/>
<path d="M1644 2890 c-56 -22 -72 -108 -30 -157 21 -25 31 -28 100 -31 l76 -4
0 -352 c0 -316 2 -359 20 -434 67 -280 295 -511 580 -588 100 -27 301 -25 404
4 285 82 489 289 567 577 20 73 23 109 27 438 l4 357 64 0 c56 0 68 4 95 28
26 24 32 36 32 72 0 37 -6 48 -32 72 l-32 29 -241 -3 -240 -3 -24 -28 c-33
-38 -33 -96 0 -134 21 -25 31 -28 100 -31 l76 -4 0 -312 c-1 -365 -9 -430 -69
-551 -50 -101 -112 -171 -204 -233 -107 -71 -196 -97 -332 -97 -117 0 -169 12
-270 63 -113 56 -219 165 -271 277 -50 109 -54 145 -54 512 l0 343 65 0 c57 0
69 3 96 28 26 24 32 36 32 72 0 36 -6 48 -32 72 l-31 28 -228 -1 c-125 0 -237
-4 -248 -9z"/>
<path d="M1781 586 c-87 -48 -50 -186 49 -186 51 0 100 49 100 99 0 75 -83
124 -149 87z"/>
</g>
</svg>
