<svg version="1.1" id="Layer_1" xmlns="http://www.w3.org/2000/svg" xmlns:xlink="http://www.w3.org/1999/xlink" x="0px" y="0px"
	 width="100%" viewBox="0 0 1622 866" enable-background="new 0 0 1622 866" xml:space="preserve">
<path fill="#FFFFFF" opacity="1.000000" stroke="none"
	d="
M954.000000,867.000000
	C636.000000,867.000000 318.500000,867.000000 1.000000,867.000000
	C1.000000,578.333313 1.000000,289.666656 1.000000,1.000000
	C541.666687,1.000000 1082.333374,1.000000 1623.000000,1.000000
	C1623.000000,289.666656 1623.000000,578.333313 1623.000000,867.000000
	C1400.166626,867.000000 1177.333374,867.000000 954.000000,867.000000
M427.329498,113.167435
	C382.838715,73.795967 331.523743,48.146805 272.164978,35.809296
	C274.172272,38.092686 275.361694,39.442524 276.547699,40.795345
	C296.540466,63.600029 305.453796,90.072548 303.251617,120.375237
	C301.572571,143.479584 294.699341,165.131577 284.427094,185.612625
	C273.700775,206.998962 261.499878,227.644592 250.730576,249.010696
	C227.228683,295.637970 208.811310,343.949738 205.543610,396.772186
	C202.746078,441.994476 213.559753,483.264771 242.327789,519.031494
	C264.272034,546.314331 292.385040,565.588135 323.381805,581.068176
	C325.463531,582.107788 327.553833,583.132324 329.665222,584.109741
	C331.623901,585.016541 333.616119,585.850830 335.808075,586.811035
	C335.808075,585.908020 335.881195,585.560791 335.797729,585.256348
	C324.020233,542.304016 315.471436,498.781738 312.614563,454.250397
	C310.029053,413.948700 312.108337,374.016510 322.229248,334.746582
	C323.928406,328.153656 326.079041,321.677124 328.021057,315.146790
	C328.455048,315.226898 328.889038,315.307007 329.323029,315.387115
	C315.511932,404.068237 324.865570,491.044342 347.680908,578.139771
	C414.034607,518.701721 450.991730,445.859131 455.320740,357.828796
	C459.634827,270.102448 429.911987,194.062714 371.491760,128.765991
	C422.957703,170.348709 458.630798,222.644821 475.727112,286.278870
	C506.686981,401.514191 479.011292,503.042664 400.579865,592.001587
	C406.787018,592.001587 412.924286,592.039856 419.060883,591.992188
	C427.212494,591.928833 436.499237,594.204163 443.204376,591.039001
	C450.304352,587.687378 455.263916,579.390503 460.617645,572.813416
	C525.662292,492.906067 550.081299,401.852539 532.424316,300.503296
	C519.512451,226.390701 483.473999,164.311127 427.329498,113.167435
M428.494324,603.996643
	C399.015961,603.996643 369.537628,603.996643 339.870117,603.996643
	C339.870117,608.200012 339.870117,612.107422 339.870117,616.174255
	C343.423553,616.499451 346.730347,616.695251 350.007111,617.121521
	C360.644043,618.505371 364.933044,622.883179 365.995453,633.509094
	C366.442413,637.979187 366.949982,642.477783 366.899658,646.957520
	C366.369659,694.105530 365.708679,741.252014 365.142853,788.399719
	C365.017792,798.821716 365.124542,809.246521 365.124542,819.596497
	C382.216156,819.596497 399.946869,819.596497 417.742523,819.596497
	C416.627655,785.263977 415.516785,751.055786 414.391937,716.416626
	C448.031433,716.416626 480.823181,716.416626 514.426514,716.416626
	C513.384705,751.193298 512.355896,785.537598 511.335571,819.600037
	C529.488281,819.600037 547.221924,819.600037 564.370544,819.600037
	C563.496460,776.304871 562.383545,733.331360 561.872437,690.350586
	C561.642822,671.045105 562.362793,651.714844 563.156799,632.416626
	C563.528015,623.395264 566.938110,619.866089 575.539490,617.916992
	C580.012573,616.903442 584.643188,616.585022 589.189880,615.954346
	C589.189880,611.916443 589.189880,608.129761 589.189880,604.343018
	C554.916931,604.343018 520.866089,604.343018 486.959473,604.343018
	C486.959473,608.473877 486.959473,612.254517 486.959473,616.175110
	C490.516937,616.501282 493.837585,616.692200 497.125763,617.128052
	C507.657715,618.524109 512.364319,622.659058 512.922363,633.033142
	C513.870117,650.652588 514.026978,668.315186 514.469177,685.960754
	C514.571411,690.038940 514.484253,694.121887 514.484253,698.590820
	C480.769104,698.590820 447.843658,698.590820 413.863678,698.590820
	C414.638855,675.649414 415.237000,653.033203 416.268677,630.436829
	C416.574371,623.741699 420.797729,619.438416 427.445618,618.106018
	C432.267944,617.139587 437.180908,616.625305 442.100037,615.902527
	C442.100037,611.919678 442.100037,608.157715 442.100037,603.996643
	C437.762054,603.996643 433.627319,603.996643 428.494324,603.996643
M145.434952,568.963318
	C138.237488,573.116089 131.186005,577.552185 123.807365,581.353333
	C113.506317,586.660034 103.302719,592.456726 92.441628,596.306335
	C75.276917,602.390198 58.375797,600.957703 42.913712,590.275330
	C41.919483,589.588440 40.686687,589.246826 38.348129,588.199829
	C40.401886,590.635437 41.569206,591.940369 42.649929,593.313477
	C56.351967,610.722168 72.348000,625.691589 90.674606,638.119629
	C120.220619,658.156311 152.392700,671.195801 188.526184,670.597656
	C234.818710,669.831482 273.096161,651.013184 303.334137,615.930115
	C304.013977,615.141357 304.488708,614.175720 305.655457,612.369263
	C291.255768,610.141968 277.700745,607.465942 264.015045,606.090271
	C250.127502,604.694275 236.104996,603.955566 222.152481,604.086731
	C208.619659,604.213867 195.100677,605.812073 181.575607,606.764160
	C224.240738,592.672546 266.877625,597.619385 310.042664,606.483154
	C304.190002,596.707520 298.513947,586.878418 291.434540,578.193237
	C270.059204,551.969543 242.124084,542.163940 208.810822,546.748352
	C186.415253,549.830383 165.936539,558.282837 145.434952,568.963318
M1577.023315,774.500000
	C1577.046997,758.339783 1577.500488,742.165894 1576.989014,726.022644
	C1576.299072,704.243164 1563.407227,688.324280 1542.802979,684.561279
	C1534.645386,683.071533 1525.833374,683.404053 1517.573242,684.624390
	C1503.029785,686.773010 1490.942017,694.131165 1480.591187,705.407288
	C1481.302612,679.390808 1482.014160,653.374329 1482.732910,627.092041
	C1461.546753,627.856384 1440.477173,628.616516 1419.256592,629.382080
	C1419.256592,633.126099 1419.256592,636.487305 1419.256592,640.281067
	C1422.743164,640.281067 1425.927856,639.985779 1429.039551,640.336914
	C1438.051025,641.353943 1440.980469,643.984070 1442.499512,652.915955
	C1443.361450,657.984924 1443.888062,663.188354 1443.834839,668.323608
	C1443.366333,713.463623 1442.726440,758.601929 1442.157715,803.740967
	C1442.091309,809.013123 1442.148682,814.286865 1442.148682,819.496338
	C1455.596069,819.496338 1468.985352,819.496338 1482.605835,819.496338
	C1482.232056,811.263977 1481.651978,803.146545 1481.536621,795.022461
	C1481.260010,775.549255 1480.485352,756.043701 1481.274536,736.606628
	C1481.945190,720.090149 1491.913574,708.131531 1505.419922,704.576904
	C1523.530396,699.810486 1536.217163,708.063171 1538.814575,726.455627
	C1539.441650,730.895813 1539.907593,735.417236 1539.822998,739.889465
	C1539.428711,760.708313 1538.783813,781.522278 1538.300415,802.339722
	C1538.166748,808.094116 1538.280029,813.854248 1538.280029,819.474365
	C1551.508911,819.474365 1564.735474,819.474365 1577.024170,819.474365
	C1577.024170,804.748718 1577.024170,790.124390 1577.023315,774.500000
M1088.051636,761.640808
	C1088.051636,758.939941 1088.051636,756.239075 1088.051636,752.229492
	C1092.084351,756.675110 1095.356934,759.799927 1098.067993,763.353027
	C1111.596924,781.084229 1124.939819,798.957397 1138.482666,816.677979
	C1139.596558,818.135437 1141.701904,819.708435 1143.369141,819.733704
	C1158.346924,819.960327 1173.329834,819.867859 1188.310913,819.808838
	C1189.357788,819.804688 1190.402954,819.318665 1191.448853,819.056702
	C1190.975098,817.961243 1190.742065,816.653625 1189.991455,815.802368
	C1179.858521,804.311890 1169.352539,793.136230 1159.542847,781.378540
	C1147.310791,766.717529 1135.638062,751.589844 1123.601807,736.510925
	C1128.317505,732.118896 1132.446167,728.001404 1136.858765,724.214722
	C1150.345215,712.641113 1162.043701,698.120361 1181.555176,697.032898
	C1181.555176,693.411255 1181.555176,690.324768 1181.555176,687.343750
	C1160.177124,687.343750 1139.115479,687.343750 1118.216797,687.343750
	C1118.216797,690.806885 1118.216797,693.919373 1118.216797,697.031860
	C1118.491821,696.621948 1118.766724,696.212036 1119.041748,695.802063
	C1123.303467,697.851624 1129.723511,698.862305 1131.326172,702.191833
	C1133.791138,707.312988 1128.583862,712.049622 1124.862427,715.721863
	C1115.147583,725.308350 1105.104736,734.564514 1095.100830,743.853516
	C1093.228760,745.591675 1090.930298,746.870300 1088.058594,748.907288
	C1088.058594,727.797058 1087.868042,707.709167 1088.112427,687.626587
	C1088.356812,667.536194 1089.035889,647.451050 1089.531494,627.079834
	C1068.363770,627.924194 1047.181641,628.769165 1025.974121,629.615173
	C1025.974121,633.438538 1025.974121,636.532532 1025.974121,639.840393
	C1029.481201,640.003906 1032.805786,639.937805 1036.068970,640.353455
	C1044.978271,641.488342 1047.789307,643.851746 1049.086670,652.693176
	C1050.170532,660.080811 1050.866211,667.610596 1050.795044,675.068481
	C1050.359497,720.709290 1049.654785,766.347595 1049.046875,811.986755
	C1049.012329,814.579102 1049.042358,817.172424 1049.042358,819.628418
	C1062.912476,819.628418 1076.317383,819.628418 1089.716553,819.628418
	C1089.159668,800.505737 1088.607788,781.554016 1088.051636,761.640808
M210.652969,492.014771
	C208.603851,485.195251 207.324265,478.019531 204.362778,471.622375
	C195.112366,451.640594 177.821854,441.678741 157.529648,436.011414
	C138.385818,430.664856 118.764061,430.644958 99.071838,430.606720
	C77.727257,430.565308 58.174191,426.175537 48.148514,403.829102
	C49.452084,420.223358 53.751923,435.674774 60.236416,450.525818
	C82.598007,501.739258 123.421799,528.008179 176.115250,524.961243
	C186.353226,524.369263 196.306213,522.099915 206.208923,517.894226
	C183.468018,496.649200 158.887085,479.396698 130.427917,468.032013
	C162.420227,474.682312 187.209930,493.848969 210.662613,515.341003
	C211.055481,515.130432 211.448349,514.919922 211.841202,514.709412
	C211.494080,507.434509 211.146942,500.159607 210.652969,492.014771
M1401.385864,794.958313
	C1401.262085,789.964600 1400.967896,784.968323 1401.044922,779.977722
	C1401.319702,762.159912 1402.121826,744.340637 1401.970337,726.528320
	C1401.788940,705.183044 1390.372559,690.767090 1369.668945,686.065674
	C1360.671509,684.022644 1351.232056,683.251160 1341.979858,683.151062
	C1325.157349,682.968994 1308.491699,685.048767 1292.191162,688.925354
	C1292.191162,701.829590 1292.191162,714.395203 1292.191162,726.868103
	C1295.646240,726.868103 1298.754395,726.868103 1301.778198,726.868103
	C1302.181519,725.331360 1302.525635,724.046204 1302.856079,722.757446
	C1308.138184,702.160522 1325.344238,691.539246 1346.116089,696.014771
	C1353.265991,697.555359 1358.569702,701.548706 1361.668701,708.114502
	C1366.427734,718.197449 1366.335693,728.930115 1365.812988,738.986877
	C1352.878662,739.998352 1340.381714,740.344116 1328.086792,742.103027
	C1313.906006,744.131714 1300.638184,749.054199 1290.426392,759.821716
	C1271.190063,780.104736 1279.552612,814.274475 1305.608276,821.841675
	C1316.266968,824.937195 1326.985840,824.479980 1337.639160,821.511475
	C1348.927979,818.365723 1358.360962,812.101868 1366.810425,803.788208
	C1368.864380,808.575684 1370.640259,813.023010 1372.710449,817.328918
	C1373.247681,818.446533 1374.690918,819.863159 1375.743164,819.884155
	C1385.515991,820.079590 1395.294312,819.999756 1405.143921,819.999756
	C1403.879395,811.628662 1402.688965,803.747803 1401.385864,794.958313
M676.680969,823.924316
	C694.819092,824.205627 712.374023,821.609619 728.979797,813.741943
	C728.071533,810.522949 727.277222,807.707764 726.404785,804.615479
	C706.040344,810.361267 686.366699,811.472778 669.191833,797.321594
	C652.615173,783.663330 646.881042,765.191284 647.013489,743.864502
	C678.020386,743.864502 708.262817,743.864502 738.444153,743.864502
	C742.028320,718.512878 727.434204,694.626953 703.730347,686.605042
	C691.961731,682.622314 679.898254,682.184082 667.722107,683.945129
	C640.984680,687.812134 621.851501,701.570312 612.233398,727.305054
	C608.331360,737.745605 607.199158,748.681274 608.037048,759.744873
	C609.975220,785.335144 620.989014,805.200623 644.835571,816.621033
	C654.572144,821.283936 665.034851,823.157532 676.680969,823.924316
M1010.478760,744.113464
	C1014.104858,744.113464 1017.730957,744.113464 1021.277405,744.113464
	C1024.283691,723.626770 1014.749878,696.451172 987.917358,686.976196
	C975.703918,682.663452 963.153625,682.097595 950.471619,683.970276
	C923.962708,687.884644 904.933350,701.560791 895.318359,727.068970
	C891.387695,737.496826 890.458008,748.406799 890.975525,759.494934
	C892.279358,787.431885 907.833801,809.732544 933.160034,818.696716
	C940.287048,821.219238 947.961304,822.750610 955.502930,823.438599
	C975.031982,825.220154 993.863220,822.000610 1011.965759,813.837158
	C1011.095581,810.669922 1010.318909,807.843018 1009.437378,804.634338
	C989.253540,810.297729 969.573059,811.516968 952.357666,797.463745
	C935.684326,783.853149 929.957275,765.332825 929.978455,744.113464
	C956.900818,744.113464 983.193542,744.113464 1010.478760,744.113464
M844.106445,736.638062
	C851.476135,725.559082 858.540894,714.258911 866.347656,703.497009
	C870.095886,698.330017 871.001587,693.230591 869.975891,687.305725
	C832.936340,687.305725 796.065002,687.305725 759.241699,687.305725
	C759.241699,700.376648 759.241699,713.136536 759.241699,725.995361
	C762.591736,725.995361 765.694824,725.995361 768.911194,725.995361
	C769.330811,723.544556 769.602722,721.238403 770.132507,718.993103
	C771.927002,711.386475 776.110413,705.720154 783.648071,702.946167
	C797.200745,697.958618 811.103577,700.101685 825.944031,700.254333
	C824.281067,703.358459 823.306580,705.601440 821.972290,707.604675
	C800.587463,739.711426 779.345642,771.916931 757.554932,803.746399
	C753.823730,809.196594 753.765015,814.165894 754.307495,819.538513
	C793.593933,819.538513 832.496094,819.538513 871.525879,819.538513
	C871.525879,813.409973 871.525879,807.346375 871.525879,802.363464
	C852.554932,803.220764 833.811401,804.188171 815.056396,804.814087
	C811.283264,804.940063 807.466919,803.769714 801.918945,802.932739
	C816.473206,780.079712 830.108093,758.670166 844.106445,736.638062
M1247.554321,707.219788
	C1247.554321,699.796326 1247.554321,692.372864 1247.554321,684.588440
	C1227.232300,685.493286 1206.833618,686.401550 1186.405518,687.311096
	C1186.405518,690.991333 1186.405518,694.208923 1186.405518,698.054565
	C1190.218018,698.054565 1193.704590,697.873718 1197.165894,698.093689
	C1203.585083,698.501648 1206.628662,700.888062 1207.929321,707.170715
	C1208.970215,712.199097 1209.835693,717.379333 1209.824341,722.490112
	C1209.772583,745.811035 1209.355103,769.131042 1209.130127,792.451965
	C1209.042480,801.536316 1209.115845,810.622253 1209.115845,819.489075
	C1221.906372,819.489075 1235.314697,819.489075 1247.953613,819.489075
	C1247.807983,782.375549 1247.662476,745.269348 1247.554321,707.219788
M234.646851,690.008057
	C240.768463,689.337646 246.910706,688.816223 253.008286,687.972168
	C287.704163,683.169556 320.757294,672.946167 352.231293,657.609924
	C353.294739,657.091736 354.857819,655.902893 354.821289,655.087952
	C354.486664,647.617615 353.849365,640.160889 353.215637,631.549255
	C326.003632,650.223022 298.232056,663.868958 268.492371,673.549500
	C238.702835,683.246338 207.972427,687.390198 176.884491,690.056152
	C195.831833,690.056152 214.779160,690.056152 234.646851,690.008057
M1224.174438,666.614197
	C1236.895630,668.117676 1246.812866,660.977295 1248.802734,648.881592
	C1250.663696,637.570190 1242.757568,626.529358 1231.218018,624.324829
	C1220.593506,622.295105 1209.194336,630.083862 1206.916260,640.929565
	C1204.376953,653.018860 1210.963867,663.213379 1224.174438,666.614197
z"/>
<path fill="#458500" opacity="1.000000" stroke="none"
	d="
M427.588745,113.406784
	C483.473999,164.311127 519.512451,226.390701 532.424316,300.503296
	C550.081299,401.852539 525.662292,492.906067 460.617645,572.813416
	C455.263916,579.390503 450.304352,587.687378 443.204376,591.039001
	C436.499237,594.204163 427.212494,591.928833 419.060883,591.992188
	C412.924286,592.039856 406.787018,592.001587 400.579865,592.001587
	C479.011292,503.042664 506.686981,401.514191 475.727112,286.278870
	C458.630798,222.644821 422.957703,170.348709 371.491760,128.765991
	C429.911987,194.062714 459.634827,270.102448 455.320740,357.828796
	C450.991730,445.859131 414.034607,518.701721 347.680908,578.139771
	C324.865570,491.044342 315.511932,404.068237 329.323029,315.387115
	C328.889038,315.307007 328.455048,315.226898 328.021057,315.146790
	C326.079041,321.677124 323.928406,328.153656 322.229248,334.746582
	C312.108337,374.016510 310.029053,413.948700 312.614563,454.250397
	C315.471436,498.781738 324.020233,542.304016 335.797729,585.256348
	C335.881195,585.560791 335.808075,585.908020 335.808075,586.811035
	C333.616119,585.850830 331.623901,585.016541 329.665222,584.109741
	C327.553833,583.132324 325.463531,582.107788 323.381805,581.068176
	C292.385040,565.588135 264.272034,546.314331 242.327789,519.031494
	C213.559753,483.264771 202.746078,441.994476 205.543610,396.772186
	C208.811310,343.949738 227.228683,295.637970 250.730576,249.010696
	C261.499878,227.644592 273.700775,206.998962 284.427094,185.612625
	C294.699341,165.131577 301.572571,143.479584 303.251617,120.375237
	C305.453796,90.072548 296.540466,63.600029 276.547699,40.795345
	C275.361694,39.442524 274.172272,38.092686 272.164978,35.809296
	C331.523743,48.146805 382.838715,73.795967 427.588745,113.406784
M367.977295,124.977959
	C367.604950,125.089790 367.232605,125.201622 366.860260,125.313469
	C367.168182,125.614006 367.476135,125.914543 367.898560,126.724510
	C368.188629,126.894531 368.478729,127.064545 369.086304,127.914436
	C369.458557,127.914497 369.830841,127.914558 370.203125,127.914612
	C370.053162,127.445488 369.903198,126.976364 369.419250,126.059212
	C369.107086,125.857368 368.794952,125.655518 367.977295,124.977959
z"/>
<path fill="#458500" opacity="1.000000" stroke="none"
	d="
M428.993439,603.996643
	C433.627319,603.996643 437.762054,603.996643 442.100037,603.996643
	C442.100037,608.157715 442.100037,611.919678 442.100037,615.902527
	C437.180908,616.625305 432.267944,617.139587 427.445618,618.106018
	C420.797729,619.438416 416.574371,623.741699 416.268677,630.436829
	C415.237000,653.033203 414.638855,675.649414 413.863678,698.590820
	C447.843658,698.590820 480.769104,698.590820 514.484253,698.590820
	C514.484253,694.121887 514.571411,690.038940 514.469177,685.960754
	C514.026978,668.315186 513.870117,650.652588 512.922363,633.033142
	C512.364319,622.659058 507.657715,618.524109 497.125763,617.128052
	C493.837585,616.692200 490.516937,616.501282 486.959473,616.175110
	C486.959473,612.254517 486.959473,608.473877 486.959473,604.343018
	C520.866089,604.343018 554.916931,604.343018 589.189880,604.343018
	C589.189880,608.129761 589.189880,611.916443 589.189880,615.954346
	C584.643188,616.585022 580.012573,616.903442 575.539490,617.916992
	C566.938110,619.866089 563.528015,623.395264 563.156799,632.416626
	C562.362793,651.714844 561.642822,671.045105 561.872437,690.350586
	C562.383545,733.331360 563.496460,776.304871 564.370544,819.600037
	C547.221924,819.600037 529.488281,819.600037 511.335571,819.600037
	C512.355896,785.537598 513.384705,751.193298 514.426514,716.416626
	C480.823181,716.416626 448.031433,716.416626 414.391937,716.416626
	C415.516785,751.055786 416.627655,785.263977 417.742523,819.596497
	C399.946869,819.596497 382.216156,819.596497 365.124542,819.596497
	C365.124542,809.246521 365.017792,798.821716 365.142853,788.399719
	C365.708679,741.252014 366.369659,694.105530 366.899658,646.957520
	C366.949982,642.477783 366.442413,637.979187 365.995453,633.509094
	C364.933044,622.883179 360.644043,618.505371 350.007111,617.121521
	C346.730347,616.695251 343.423553,616.499451 339.870117,616.174255
	C339.870117,612.107422 339.870117,608.200012 339.870117,603.996643
	C369.537628,603.996643 399.015961,603.996643 428.993439,603.996643
z"/>
<path fill="#458500" opacity="1.000000" stroke="none"
	d="
M145.767380,568.798645
	C165.936539,558.282837 186.415253,549.830383 208.810822,546.748352
	C242.124084,542.163940 270.059204,551.969543 291.434540,578.193237
	C298.513947,586.878418 304.190002,596.707520 310.042664,606.483154
	C266.877625,597.619385 224.240738,592.672546 181.575607,606.764160
	C195.100677,605.812073 208.619659,604.213867 222.152481,604.086731
	C236.104996,603.955566 250.127502,604.694275 264.015045,606.090271
	C277.700745,607.465942 291.255768,610.141968 305.655457,612.369263
	C304.488708,614.175720 304.013977,615.141357 303.334137,615.930115
	C273.096161,651.013184 234.818710,669.831482 188.526184,670.597656
	C152.392700,671.195801 120.220619,658.156311 90.674606,638.119629
	C72.348000,625.691589 56.351967,610.722168 42.649929,593.313477
	C41.569206,591.940369 40.401886,590.635437 38.348129,588.199829
	C40.686687,589.246826 41.919483,589.588440 42.913712,590.275330
	C58.375797,600.957703 75.276917,602.390198 92.441628,596.306335
	C103.302719,592.456726 113.506317,586.660034 123.807365,581.353333
	C131.186005,577.552185 138.237488,573.116089 145.767380,568.798645
z"/>
<path fill="#458500" opacity="1.000000" stroke="none"
	d="
M1577.023682,775.000000
	C1577.024170,790.124390 1577.024170,804.748718 1577.024170,819.474365
	C1564.735474,819.474365 1551.508911,819.474365 1538.280029,819.474365
	C1538.280029,813.854248 1538.166748,808.094116 1538.300415,802.339722
	C1538.783813,781.522278 1539.428711,760.708313 1539.822998,739.889465
	C1539.907593,735.417236 1539.441650,730.895813 1538.814575,726.455627
	C1536.217163,708.063171 1523.530396,699.810486 1505.419922,704.576904
	C1491.913574,708.131531 1481.945190,720.090149 1481.274536,736.606628
	C1480.485352,756.043701 1481.260010,775.549255 1481.536621,795.022461
	C1481.651978,803.146545 1482.232056,811.263977 1482.605835,819.496338
	C1468.985352,819.496338 1455.596069,819.496338 1442.148682,819.496338
	C1442.148682,814.286865 1442.091309,809.013123 1442.157715,803.740967
	C1442.726440,758.601929 1443.366333,713.463623 1443.834839,668.323608
	C1443.888062,663.188354 1443.361450,657.984924 1442.499512,652.915955
	C1440.980469,643.984070 1438.051025,641.353943 1429.039551,640.336914
	C1425.927856,639.985779 1422.743164,640.281067 1419.256592,640.281067
	C1419.256592,636.487305 1419.256592,633.126099 1419.256592,629.382080
	C1440.477173,628.616516 1461.546753,627.856384 1482.732910,627.092041
	C1482.014160,653.374329 1481.302612,679.390808 1480.591187,705.407288
	C1490.942017,694.131165 1503.029785,686.773010 1517.573242,684.624390
	C1525.833374,683.404053 1534.645386,683.071533 1542.802979,684.561279
	C1563.407227,688.324280 1576.299072,704.243164 1576.989014,726.022644
	C1577.500488,742.165894 1577.046997,758.339783 1577.023682,775.000000
z"/>
<path fill="#458500" opacity="1.000000" stroke="none"
	d="
M1088.053711,762.121582
	C1088.607788,781.554016 1089.159668,800.505737 1089.716553,819.628418
	C1076.317383,819.628418 1062.912476,819.628418 1049.042358,819.628418
	C1049.042358,817.172424 1049.012329,814.579102 1049.046875,811.986755
	C1049.654785,766.347595 1050.359497,720.709290 1050.795044,675.068481
	C1050.866211,667.610596 1050.170532,660.080811 1049.086670,652.693176
	C1047.789307,643.851746 1044.978271,641.488342 1036.068970,640.353455
	C1032.805786,639.937805 1029.481201,640.003906 1025.974121,639.840393
	C1025.974121,636.532532 1025.974121,633.438538 1025.974121,629.615173
	C1047.181641,628.769165 1068.363770,627.924194 1089.531494,627.079834
	C1089.035889,647.451050 1088.356812,667.536194 1088.112427,687.626587
	C1087.868042,707.709167 1088.058594,727.797058 1088.058594,748.907288
	C1090.930298,746.870300 1093.228760,745.591675 1095.100830,743.853516
	C1105.104736,734.564514 1115.147583,725.308350 1124.862427,715.721863
	C1128.583862,712.049622 1133.791138,707.312988 1131.326172,702.191833
	C1129.723511,698.862305 1123.303467,697.851624 1119.041748,695.802063
	C1118.766724,696.212036 1118.491821,696.621948 1118.216797,697.031860
	C1118.216797,693.919373 1118.216797,690.806885 1118.216797,687.343750
	C1139.115479,687.343750 1160.177124,687.343750 1181.555176,687.343750
	C1181.555176,690.324768 1181.555176,693.411255 1181.555176,697.032898
	C1162.043701,698.120361 1150.345215,712.641113 1136.858765,724.214722
	C1132.446167,728.001404 1128.317505,732.118896 1123.601807,736.510925
	C1135.638062,751.589844 1147.310791,766.717529 1159.542847,781.378540
	C1169.352539,793.136230 1179.858521,804.311890 1189.991455,815.802368
	C1190.742065,816.653625 1190.975098,817.961243 1191.448853,819.056763
	C1190.402954,819.318665 1189.357788,819.804688 1188.310913,819.808838
	C1173.329834,819.867859 1158.346924,819.960327 1143.369141,819.733704
	C1141.701904,819.708435 1139.596558,818.135437 1138.482666,816.677979
	C1124.939819,798.957397 1111.596924,781.084229 1098.067993,763.353027
	C1095.356934,759.799927 1092.084351,756.675110 1088.051636,752.229492
	C1088.051636,756.239075 1088.051636,758.939941 1088.053711,762.121582
z"/>
<path fill="#458500" opacity="1.000000" stroke="none"
	d="
M210.726395,492.449738
	C211.146942,500.159607 211.494080,507.434509 211.841202,514.709412
	C211.448349,514.919922 211.055481,515.130432 210.662613,515.341003
	C187.209930,493.848969 162.420227,474.682312 130.427917,468.032013
	C158.887085,479.396698 183.468018,496.649200 206.208923,517.894226
	C196.306213,522.099915 186.353226,524.369263 176.115250,524.961243
	C123.421799,528.008179 82.598007,501.739258 60.236416,450.525818
	C53.751923,435.674774 49.452084,420.223358 48.148514,403.829102
	C58.174191,426.175537 77.727257,430.565308 99.071838,430.606720
	C118.764061,430.644958 138.385818,430.664856 157.529648,436.011414
	C177.821854,441.678741 195.112366,451.640594 204.362778,471.622375
	C207.324265,478.019531 208.603851,485.195251 210.726395,492.449738
z"/>
<path fill="#458500" opacity="1.000000" stroke="none"
	d="
M1401.442139,795.412598
	C1402.688965,803.747803 1403.879395,811.628662 1405.143921,819.999756
	C1395.294312,819.999756 1385.515991,820.079590 1375.743164,819.884155
	C1374.690918,819.863159 1373.247681,818.446533 1372.710449,817.328918
	C1370.640259,813.023010 1368.864380,808.575684 1366.810425,803.788208
	C1358.360962,812.101868 1348.927979,818.365723 1337.639160,821.511475
	C1326.985840,824.479980 1316.266968,824.937195 1305.608276,821.841675
	C1279.552612,814.274475 1271.190063,780.104736 1290.426392,759.821716
	C1300.638184,749.054199 1313.906006,744.131714 1328.086792,742.103027
	C1340.381714,740.344116 1352.878662,739.998352 1365.812988,738.986877
	C1366.335693,728.930115 1366.427734,718.197449 1361.668701,708.114502
	C1358.569702,701.548706 1353.265991,697.555359 1346.116089,696.014771
	C1325.344238,691.539246 1308.138184,702.160522 1302.856079,722.757446
	C1302.525635,724.046204 1302.181519,725.331360 1301.778198,726.868103
	C1298.754395,726.868103 1295.646240,726.868103 1292.191162,726.868103
	C1292.191162,714.395203 1292.191162,701.829590 1292.191162,688.925354
	C1308.491699,685.048767 1325.157349,682.968994 1341.979858,683.151062
	C1351.232056,683.251160 1360.671509,684.022644 1369.668945,686.065674
	C1390.372559,690.767090 1401.788940,705.183044 1401.970337,726.528320
	C1402.121826,744.340637 1401.319702,762.159912 1401.044922,779.977722
	C1400.967896,784.968323 1401.262085,789.964600 1401.442139,795.412598
M1358.379272,750.072510
	C1355.883179,750.092590 1353.380981,750.007507 1350.891846,750.149475
	C1331.513306,751.254822 1319.726196,762.089905 1318.404419,779.956421
	C1317.133667,797.130615 1329.614502,807.916748 1346.318481,803.991943
	C1357.733276,801.309753 1363.329224,793.022278 1364.767212,782.319824
	C1366.151978,772.012024 1365.953369,761.491455 1366.466064,750.737305
	C1363.583374,750.473633 1361.454590,750.278931 1358.379272,750.072510
z"/>
<path fill="#458500" opacity="1.000000" stroke="none"
	d="
M676.207520,823.899780
	C665.034851,823.157532 654.572144,821.283936 644.835571,816.621033
	C620.989014,805.200623 609.975220,785.335144 608.037048,759.744873
	C607.199158,748.681274 608.331360,737.745605 612.233398,727.305054
	C621.851501,701.570312 640.984680,687.812134 667.722107,683.945129
	C679.898254,682.184082 691.961731,682.622314 703.730347,686.605042
	C727.434204,694.626953 742.028320,718.512878 738.444153,743.864502
	C708.262817,743.864502 678.020386,743.864502 647.013489,743.864502
	C646.881042,765.191284 652.615173,783.663330 669.191833,797.321594
	C686.366699,811.472778 706.040344,810.361267 726.404785,804.615479
	C727.277222,807.707764 728.071533,810.522949 728.979797,813.741943
	C712.374023,821.609619 694.819092,824.205627 676.207520,823.899780
M655.708557,705.280579
	C650.309570,713.600891 648.399963,722.923340 647.611389,732.798340
	C661.654907,732.798340 675.459961,732.870789 689.262817,732.726013
	C691.526672,732.702271 693.814819,731.835205 696.031250,731.159302
	C699.634644,730.060303 701.347351,727.450684 701.668274,723.748108
	C702.665100,712.246887 696.021606,700.109070 686.504333,696.147217
	C676.018921,691.782227 663.981201,695.159058 655.708557,705.280579
z"/>
<path fill="#458500" opacity="1.000000" stroke="none"
	d="
M1009.982483,744.113464
	C983.193542,744.113464 956.900818,744.113464 929.978455,744.113464
	C929.957275,765.332825 935.684326,783.853149 952.357666,797.463745
	C969.573059,811.516968 989.253540,810.297729 1009.437378,804.634338
	C1010.318909,807.843018 1011.095581,810.669922 1011.965759,813.837158
	C993.863220,822.000610 975.031982,825.220154 955.502930,823.438599
	C947.961304,822.750610 940.287048,821.219238 933.160034,818.696716
	C907.833801,809.732544 892.279358,787.431885 890.975525,759.494934
	C890.458008,748.406799 891.387695,737.496826 895.318359,727.068970
	C904.933350,701.560791 923.962708,687.884644 950.471619,683.970276
	C963.153625,682.097595 975.703918,682.663452 987.917358,686.976196
	C1014.749878,696.451172 1024.283691,723.626770 1021.277405,744.113464
	C1017.730957,744.113464 1014.104858,744.113464 1009.982483,744.113464
M933.905823,715.462830
	C932.635132,721.111755 931.364502,726.760620 929.960754,733.000977
	C941.677490,733.000977 952.634277,733.022827 963.590820,732.987183
	C966.751526,732.976868 969.934326,732.997620 973.064514,732.635986
	C975.346130,732.372437 977.815430,731.932739 979.726868,730.783081
	C981.555725,729.683228 983.532593,727.800476 984.133972,725.856445
	C987.899658,713.684326 977.888428,697.418030 965.406921,694.960938
	C950.940308,692.113098 940.461182,698.716309 933.905823,715.462830
z"/>
<path fill="#458500" opacity="1.000000" stroke="none"
	d="
M843.924744,736.949341
	C830.108093,758.670166 816.473206,780.079712 801.918945,802.932739
	C807.466919,803.769714 811.283264,804.940063 815.056396,804.814087
	C833.811401,804.188171 852.554932,803.220764 871.525879,802.363464
	C871.525879,807.346375 871.525879,813.409973 871.525879,819.538513
	C832.496094,819.538513 793.593933,819.538513 754.307495,819.538513
	C753.765015,814.165894 753.823730,809.196594 757.554932,803.746399
	C779.345642,771.916931 800.587463,739.711426 821.972290,707.604675
	C823.306580,705.601440 824.281067,703.358459 825.944031,700.254333
	C811.103577,700.101685 797.200745,697.958618 783.648071,702.946167
	C776.110413,705.720154 771.927002,711.386475 770.132507,718.993103
	C769.602722,721.238403 769.330811,723.544556 768.911194,725.995361
	C765.694824,725.995361 762.591736,725.995361 759.241699,725.995361
	C759.241699,713.136536 759.241699,700.376648 759.241699,687.305725
	C796.065002,687.305725 832.936340,687.305725 869.975891,687.305725
	C871.001587,693.230591 870.095886,698.330017 866.347656,703.497009
	C858.540894,714.258911 851.476135,725.559082 843.924744,736.949341
z"/>
<path fill="#458500" opacity="1.000000" stroke="none"
	d="
M1247.535645,707.691528
	C1247.662476,745.269348 1247.807983,782.375549 1247.953613,819.489075
	C1235.314697,819.489075 1221.906372,819.489075 1209.115845,819.489075
	C1209.115845,810.622253 1209.042480,801.536316 1209.130127,792.451965
	C1209.355103,769.131042 1209.772583,745.811035 1209.824341,722.490112
	C1209.835693,717.379333 1208.970215,712.199097 1207.929321,707.170715
	C1206.628662,700.888062 1203.585083,698.501648 1197.165894,698.093689
	C1193.704590,697.873718 1190.218018,698.054565 1186.405518,698.054565
	C1186.405518,694.208923 1186.405518,690.991333 1186.405518,687.311096
	C1206.833618,686.401550 1227.232300,685.493286 1247.554321,684.588440
	C1247.554321,692.372864 1247.554321,699.796326 1247.535645,707.691528
z"/>
<path fill="#458500" opacity="1.000000" stroke="none"
	d="
M234.186676,690.032104
	C214.779160,690.056152 195.831833,690.056152 176.884491,690.056152
	C207.972427,687.390198 238.702835,683.246338 268.492371,673.549500
	C298.232056,663.868958 326.003632,650.223022 353.215637,631.549255
	C353.849365,640.160889 354.486664,647.617615 354.821289,655.087952
	C354.857819,655.902893 353.294739,657.091736 352.231293,657.609924
	C320.757294,672.946167 287.704163,683.169556 253.008286,687.972168
	C246.910706,688.816223 240.768463,689.337646 234.186676,690.032104
z"/>
<path fill="#458500" opacity="1.000000" stroke="none"
	d="
M1223.771240,666.502808
	C1210.963867,663.213379 1204.376953,653.018860 1206.916260,640.929565
	C1209.194336,630.083862 1220.593506,622.295105 1231.218018,624.324829
	C1242.757568,626.529358 1250.663696,637.570190 1248.802734,648.881592
	C1246.812866,660.977295 1236.895630,668.117676 1223.771240,666.502808
z"/>
<path fill="#FFFFFF" opacity="1.000000" stroke="none"
	d="
M368.768799,127.234558
	C368.478729,127.064545 368.188629,126.894531 368.018921,126.282120
	C368.253754,125.711037 368.368256,125.582359 368.482788,125.453674
	C368.794952,125.655518 369.107086,125.857368 369.331970,126.454018
	C369.086060,126.977409 368.927429,127.105988 368.768799,127.234558
z"/>
<path fill="#FFFFFF" opacity="1.000000" stroke="none"
	d="
M367.961670,126.027405
	C367.476135,125.914543 367.168182,125.614006 366.860260,125.313461
	C367.232605,125.201622 367.604950,125.089790 368.230042,125.215820
	C368.368256,125.582359 368.253754,125.711037 367.961670,126.027405
z"/>
<path fill="#FFFFFF" opacity="1.000000" stroke="none"
	d="
M369.498993,126.678032
	C369.903198,126.976364 370.053162,127.445488 370.203125,127.914612
	C369.830841,127.914558 369.458557,127.914497 368.927551,127.574493
	C368.927429,127.105988 369.086060,126.977409 369.498993,126.678032
z"/>
<path fill="#FCFDFC" opacity="1.000000" stroke="none"
	d="
M1358.852539,750.078369
	C1361.454590,750.278931 1363.583374,750.473633 1366.466064,750.737305
	C1365.953369,761.491455 1366.151978,772.012024 1364.767212,782.319824
	C1363.329224,793.022278 1357.733276,801.309753 1346.318481,803.991943
	C1329.614502,807.916748 1317.133667,797.130615 1318.404419,779.956421
	C1319.726196,762.089905 1331.513306,751.254822 1350.891846,750.149475
	C1353.380981,750.007507 1355.883179,750.092590 1358.852539,750.078369
z"/>
<path fill="#FDFDFD" opacity="1.000000" stroke="none"
	d="
M655.906921,704.977661
	C663.981201,695.159058 676.018921,691.782227 686.504333,696.147217
	C696.021606,700.109070 702.665100,712.246887 701.668274,723.748108
	C701.347351,727.450684 699.634644,730.060303 696.031250,731.159302
	C693.814819,731.835205 691.526672,732.702271 689.262817,732.726013
	C675.459961,732.870789 661.654907,732.798340 647.611389,732.798340
	C648.399963,722.923340 650.309570,713.600891 655.906921,704.977661
z"/>
<path fill="#FDFDFD" opacity="1.000000" stroke="none"
	d="
M933.997437,715.079163
	C940.461182,698.716309 950.940308,692.113098 965.406921,694.960938
	C977.888428,697.418030 987.899658,713.684326 984.133972,725.856445
	C983.532593,727.800476 981.555725,729.683228 979.726868,730.783081
	C977.815430,731.932739 975.346130,732.372437 973.064514,732.635986
	C969.934326,732.997620 966.751526,732.976868 963.590820,732.987183
	C952.634277,733.022827 941.677490,733.000977 929.960754,733.000977
	C931.364502,726.760620 932.635132,721.111755 933.997437,715.079163
z"/>
</svg>
